<svg width="105" height="126" fill="none" xmlns="http://www.w3.org/2000/svg"><path d="M76.396 93.976c10.089 0 18.286-8.172 18.286-18.439 0-3.981 1.682-7.962 4.414-10.686 7.147-7.124 7.147-18.858 0-25.982-2.942-2.934-4.414-6.706-4.414-10.687 0-10.057-8.197-18.439-18.496-18.439-3.994 0-7.988-1.676-10.72-4.4-7.147-7.124-18.917-7.124-26.064 0-2.943 2.934-6.726 4.4-10.72 4.4-10.089 0-18.496 8.172-18.496 18.44 0 3.98-1.682 7.962-4.414 10.686C2.198 42.43.307 46.83.307 51.859c0 4.82 1.891 9.43 5.465 12.992 2.942 2.933 4.414 6.705 4.414 10.686 0 10.058 8.197 18.44 18.496 18.44 3.994 0 7.988 1.675 10.72 4.4 3.573 3.562 8.198 5.447 13.032 5.447 4.624 0 9.459-1.885 13.032-5.448 3.153-2.933 6.936-4.4 10.93-4.4zm-34.471 2.096c-3.574-3.563-8.198-5.448-13.032-5.448-8.408 0-15.344-6.915-15.344-15.296 0-4.82-1.892-9.43-5.465-12.992C5.14 59.404 3.67 55.632 3.67 51.65c0-3.98 1.681-7.962 4.414-10.686 3.573-3.562 5.465-8.172 5.465-12.991 0-8.381 6.936-15.296 15.344-15.296 4.834 0 9.458-1.886 13.032-5.448 2.942-2.514 6.726-3.981 10.72-3.981 3.993 0 7.776 1.467 10.719 4.4 3.573 3.353 8.197 5.238 13.032 5.238 8.407 0 15.134 6.915 15.134 15.296 0 4.82 1.891 9.43 5.465 12.991 5.885 5.867 5.885 15.506 0 21.583-3.574 3.562-5.465 8.171-5.465 12.99 0 8.382-6.937 15.297-15.344 15.297-4.835 0-9.459 1.886-13.032 5.448-5.675 5.657-15.344 5.657-21.23-.42z" fill="#5F8711"/><path d="M78.079 43.688c-.21-.629-.63-1.048-1.261-1.048l-15.765-2.305-6.936-14.248c-.63-1.048-2.312-1.048-2.732 0l-7.147 14.248-15.554 2.305c-.63 0-1.051.42-1.261 1.048-.21.628 0 1.257.42 1.676l11.35 11.105-2.942 15.296c0 .629.21 1.257.63 1.467.42.42 1.051.42 1.682.21l14.083-7.334 14.082 7.334c.21.21.42.21.631.21.42 0 .63 0 .84-.21.421-.42.631-1.048.631-1.467l-2.732-15.506 11.35-11.105c.63-.42.63-1.048.63-1.676zM63.365 54.583c-.42.42-.63.839-.42 1.467l2.312 13.2-11.98-6.285c-.211-.21-.421-.21-.631-.21-.21 0-.42 0-.63.21L40.033 69.25l2.312-13.2c0-.42 0-1.049-.42-1.468l-9.669-9.429L45.5 43.27c.42 0 1.051-.42 1.261-.838l5.886-11.944 5.885 11.944c.21.419.63.838 1.261.838l13.242 1.885-9.669 9.43zm-18.36 43.958c-.841-.419-1.682 0-2.102.838l-9.459 20.116-5.885-16.344c-.21-.419-.42-.629-.841-.838a1.34 1.34 0 00-1.261 0L9.062 108.18 18.1 88.693c.42-.838 0-1.676-.84-2.095-.842-.42-1.682 0-2.103.838l-10.72 23.049c-.21.628-.21 1.257.21 1.676.421.419 1.052.629 1.682.419l18.497-6.705 6.726 18.439c.21.629.841 1.048 1.472 1.048.63 0 1.26-.419 1.47-.838l10.93-23.468c.842-1.258.421-2.096-.42-2.515zm55.142 13.95c.421-.419.631-1.047.211-1.676l-10.09-21.373c-.42-.838-1.26-1.047-2.102-.838-.84.42-1.05 1.258-.84 2.096l8.407 18.02-16.395-5.867c-.42-.21-.84-.21-1.26 0-.421.209-.631.419-.841.838l-5.676 16.134-8.828-19.068c-.42-.838-1.26-1.047-2.102-.838-.84.419-1.05 1.257-.84 2.096l10.51 22.42c.21.628.84.838 1.47.838.631 0 1.262-.419 1.472-1.048l6.726-18.439 18.497 6.705c.63.629 1.261.419 1.681 0z" fill="#5F8711"/><path d="M88.168 51.669c0 19.379-16.223 35.168-36.335 35.168-20.111 0-36.334-15.79-36.334-35.168 0-19.38 16.223-35.169 36.334-35.169 20.112 0 36.335 15.79 36.335 35.169z" stroke="#5F8711" stroke-width="3"/></svg>