<svg width="116" height="126" viewBox="0 0 116 126" fill="none" xmlns="http://www.w3.org/2000/svg">
<path d="M94.8868 90.7544V120.491C94.8868 122.672 93.097 124.456 90.9095 124.456H5.39665C3.20912 124.456 1.41931 122.672 1.41931 120.491V5.50886C1.41931 3.32816 3.20912 1.54395 5.39665 1.54395H56.9032L94.8868 37.4264V66.965" stroke="#5F8711" stroke-width="2"/>
<path d="M19.3177 55.0703H80.9666" stroke="#5F8711" stroke-width="2"/>
<path d="M19.3177 68.9473H80.9666" stroke="#5F8711" stroke-width="2"/>
<path d="M19.3177 86.79H67.0458" stroke="#5F8711" stroke-width="2"/>
<path d="M55.1136 118.508L62.8695 99.8728L103.239 59.6289C104.035 58.8359 105.427 58.8359 106.421 59.6289L114.177 67.3605C114.973 68.1535 114.973 69.5412 114.177 70.5324L73.8071 110.776L55.1136 118.508Z" stroke="#5F8711" stroke-width="2" stroke-linejoin="round"/>
<path d="M94.8868 67.0273L105.626 77.7325" stroke="#5F8711" stroke-width="2"/>
</svg>
