<svg width="160" height="106" fill="none" xmlns="http://www.w3.org/2000/svg"><path d="M25.827.207c-1.797.684-2.57 1.314-3.433 2.717-.45.738-2.39 4.552-4.116 8.078-.521 1.08-1.042 2.051-1.168 2.177-.36.342-2.049 3.868-2.049 4.246 0 .18-.108.342-.216.342-.125.018-.43.432-.683.953-.52 1.044-3.9 7.61-5.769 11.191-2.229 4.282-5.553 10.759-6.83 13.314C.36 45.67.323 45.779.287 47.183c-.036 1.295.018 1.565.486 2.428.27.54.629 1.206.754 1.476.396.791 1.366 1.421 4.997 3.292 1.887.972 4.385 2.267 5.571 2.879 1.187.63 3.002 1.565 4.044 2.087l1.888.971 1.707-.018c2.031-.018 2.966-.378 4.26-1.6l.826-.792.917.467c1.204.594 1.672 1.044 2.21 2.123.612 1.206 1.978 3.185 3.074 4.462l.88 1.044-.413 1.025c-.557 1.35-.593 3.472-.09 4.948.971 2.806 3.793 5.073 6.56 5.29l1.15.107.073 1.745c.054 1.62.126 1.871.773 3.149 1.365 2.716 4.313 4.426 7.189 4.192l.952-.072.09 1.043c.216 2.357 1.905 4.714 4.224 5.847 1.312.648 1.438.684 3.199.684h1.833l.09.738c.216 2.015 2.193 4.462 4.44 5.541 2.498 1.205 5.086 1.026 7.386-.486.432-.288.468-.288.809.018.18.162 1.24 1.08 2.319 2.015 1.096.936 2.084 1.799 2.228 1.943.521.504 1.636 1.116 2.75 1.494.935.305 1.456.359 2.948.305 1.671-.054 1.923-.107 3.163-.737 2.192-1.08 3.918-3.239 4.44-5.505.089-.432.197-.792.233-.828.036-.036.647.216 1.348.576 2.21 1.097 5.032 1.115 7.207.036 2.139-1.044 4.134-3.527 4.457-5.56.234-1.529.162-1.457 1.007-1.151 1.078.378 2.947.504 4.187.27 3.469-.648 6.363-3.599 6.92-7.089l.215-1.331.935.252c1.276.36 3.846.216 5.158-.288 3.811-1.457 6.165-5.452 5.554-9.446-.252-1.673-1.168-3.562-2.319-4.713l-.916-.918 1.042-.684c3.541-2.339 6.417-4.84 8.412-7.286.629-.774 1.401-1.53 1.851-1.781.755-.414.791-.414.97-.108.468.845 1.654 1.87 2.696 2.357.935.431 1.348.521 2.552.521 1.366 0 1.798-.108 8.897-2.482 4.098-1.35 7.8-2.645 8.214-2.843 1.294-.666 1.941-1.331 2.66-2.807.647-1.259.701-1.529.701-2.752-.018-1.044-.126-1.602-.486-2.447a30.192 30.192 0 01-.827-2.339 24.077 24.077 0 00-.539-1.781c-.09-.306-2.372-7.215-5.068-15.383-2.678-8.168-4.943-14.932-5.014-15.022-.072-.108-.468-1.278-.899-2.61-2.426-7.663-2.552-7.97-3.739-9.013-1.186-1.043-2.444-1.511-4.079-1.511-1.366 0-1.834.144-9.167 2.59-5.733 1.908-7.962 2.735-8.644 3.185-.935.63-1.888 1.781-2.247 2.699-.324.863-.503 2.59-.36 3.418l.144.774-2.804.953c-2.66.9-2.893.954-4.511.918-1.977-.018-3.558-.27-9.975-1.493-6.865-1.332-7.44-1.422-8.717-1.53-.647-.054-1.42-.18-1.743-.287-.305-.109-.683-.162-.809-.144-.126.035-.79-.054-1.492-.162-2.498-.432-6.614-.576-8.806-.306-1.492.18-4.224.953-4.224 1.187 0 .072-.503.378-1.114.684-.63.306-1.708 1.061-2.427 1.673a67.728 67.728 0 01-2.21 1.853c-.503.396-1.222.972-1.618 1.278l-.7.575-5.087.126c-3.45.09-5.697.072-6.956-.072-1.76-.198-1.995-.27-3.882-1.26-4.834-2.554-5.14-2.752-5.032-3.058.467-1.205.216-3.238-.593-4.767-.683-1.278-1.654-2.015-4.637-3.563a798.768 798.768 0 01-6.542-3.382C29.188-.081 29.583.081 27.93.009c-.917-.036-1.69.036-2.103.198zm3.882 4.318c.593.342 2.534 1.35 4.314 2.267 4.547 2.339 8.033 4.156 8.375 4.372.916.576 1.114 1.98.467 3.329-.431.845-6.991 13.565-10.28 19.916-.611 1.187-1.834 3.526-2.696 5.217-.863 1.674-2.031 3.94-2.606 5.038-.558 1.08-2.031 3.922-3.236 6.297-1.222 2.375-2.408 4.534-2.66 4.822-.27.27-.79.593-1.168.701-.7.216-.755.18-4.151-1.547C7.872 50.763 5.05 49.234 4.655 48.82c-.252-.27-.45-.756-.503-1.242-.09-.737.035-1.079 1.743-4.371 2.21-4.264 3.81-7.377 5.212-10.058.557-1.097 2.031-3.922 3.235-6.297 1.222-2.374 2.265-4.407 2.337-4.497.072-.108 1.276-2.447 2.678-5.218 1.402-2.77 2.732-5.361 2.965-5.757.216-.396 1.043-1.961 1.797-3.454 1.582-3.113 1.924-3.599 2.696-3.94.737-.342 1.582-.18 2.894.54zm111.18 1.116c.324.306.665 1.007.989 2.033.251.845.539 1.619.611 1.727.072.09.395 1.025.719 2.069.898 2.842 4.493 13.89 4.673 14.303.701 1.71 8.267 25.188 8.267 25.674 0 .45-.161.81-.575 1.277-.629.684-.827.756-12.383 4.534-5.086 1.673-5.069 1.691-6.848-3.688-7.189-21.518-13.623-41.273-13.623-41.758 0-1.134.701-1.71 3.235-2.609 1.24-.45 2.678-.918 3.217-1.08.539-.143 1.078-.341 1.168-.413.108-.09.683-.306 1.276-.468.593-.18 2.409-.738 4.044-1.26 1.636-.54 3.127-.989 3.325-1.025.575-.126 1.366.162 1.905.684zM87.492 15.716c3.253.36 6.147.81 10.784 1.691 2.12.414 5.086.972 6.56 1.26 6.47 1.223 8.411 1.187 12.581-.235l2.875-.971 6.237 18.819c3.433 10.345 6.255 18.873 6.255 18.927 0 .072-.342.252-.755.432-1.151.45-2.319 1.385-3.2 2.554-1.312 1.71-3.396 3.67-5.715 5.38-2.642 1.943-3.99 2.806-4.241 2.698-.162-.072-3.307-2.734-7.118-6.045a834.943 834.943 0 00-7.153-6.099c-.323-.252-1.186-1.025-1.905-1.69-.737-.685-1.564-1.386-1.869-1.566-.288-.18-1.007-.792-1.564-1.332-.557-.557-1.078-1.007-1.15-1.007-.09 0-.54-.396-1.025-.864a48.13 48.13 0 00-2.498-2.267c-2.947-2.536-3.576-3.094-5.122-4.443-6.273-5.506-9.418-8.06-10.19-8.33-2.175-.738-4.386-.072-6.417 1.925-1.672 1.655-2.355 3.184-2.732 6.063-.341 2.788-.647 3.994-1.474 5.937-.97 2.32-1.78 3.562-3.073 4.858-1.743 1.709-3.433 2.446-5.104 2.248-1.258-.161-1.42-.503-1.276-2.698.071-1.386.071-5.272 0-15.832-.019-2.015.017-2.213.467-3.059.27-.504.629-1.061.809-1.26.97-1.079 9.651-8.69 13.03-11.406.665-.522 1.24-1.08 1.294-1.205.054-.126.413-.396.827-.612.395-.198.719-.45.719-.54 0-.108.161-.18.36-.18.197 0 .359-.072.359-.162 0-.197 2.426-1.061 3.612-1.259 1.114-.198 3.361-.108 6.812.27zm-39.918 4.138c1.24.666 2.786 1.475 3.415 1.835 1.959 1.061 2.498 1.151 7.656 1.241l4.673.09-.449.36c-.252.198-1.492 1.296-2.768 2.447-4.35 3.958-5.122 5.775-4.78 11.1.269 4.355.34 10.22.161 13.206-.18 2.555-.162 2.843.18 3.958.431 1.44 1.258 2.303 2.75 2.933.773.324 1.312.396 2.84.396 1.635 0 2.03-.054 2.983-.468 1.438-.594 3.091-1.727 4.278-2.915 2.713-2.716 4.996-8.024 5.41-12.612.071-.701.233-1.637.377-2.105.485-1.493 2.48-3.364 3.36-3.13.234.054.863.486 1.403.954a229.75 229.75 0 011.959 1.673c.52.45 3.378 2.914 6.344 5.487 6.039 5.253 7.836 6.783 9.49 8.132a75.626 75.626 0 011.797 1.53c1.294 1.205 2.283 2.068 4.026 3.562.988.845 2.085 1.78 2.426 2.087.342.305 2.337 2.033 4.404 3.85 2.084 1.799 4.026 3.49 4.313 3.76.306.252 1.672 1.44 3.056 2.627 3.972 3.418 4.313 3.832 4.529 5.667.323 2.717-2.013 5.271-4.799 5.271-1.258 0-2.337-.467-3.613-1.583-.539-.468-1.204-1.08-1.509-1.331-.935-.828-5.5-4.768-6.183-5.326-.359-.287-1.941-1.673-3.541-3.058a445.566 445.566 0 00-3.936-3.419 153.733 153.733 0 00-1.455-1.259c-1.546-1.385-3.361-2.896-3.793-3.112-.629-.342-1.743-.27-2.264.144-.575.45-.917 1.439-.755 2.158.162.738.719 1.368 2.678 3.023.898.756 3.45 2.969 5.68 4.894 2.228 1.925 4.528 3.904 5.103 4.408 3.631 3.094 5.77 5.11 6.093 5.739.468.9.593 2.393.288 3.49-.324 1.17-1.923 2.807-3.038 3.095-1.006.27-2.588.161-3.414-.234-.36-.18-1.402-.972-2.337-1.781-.934-.828-3.001-2.61-4.583-3.977-1.582-1.385-3.325-2.896-3.864-3.364-.54-.468-1.276-1.08-1.618-1.367-.341-.27-1.024-.882-1.528-1.332a70.418 70.418 0 00-1.959-1.709c-.575-.504-1.545-1.331-2.156-1.87-1.42-1.26-2.05-1.53-2.984-1.278-1.204.324-1.833 1.475-1.456 2.68.162.54.648 1.08 2.39 2.573 1.223 1.044 2.41 2.07 2.66 2.285.252.216.882.774 1.42 1.242.54.467 1.223 1.061 1.528 1.33.306.27.647.505.755.505.126 0 .504.324.863.72.36.395.719.719.79.719.073 0 .468.342.846.756.395.413 1.563 1.475 2.606 2.374 2.767 2.375 3.037 2.735 3.18 4.426.342 3.778-4.403 6.135-7.152 3.545a24.08 24.08 0 00-1.079-.936c-.575-.486-1.438-1.223-5.571-4.786a43.387 43.387 0 01-1.582-1.403c-.306-.288-.647-.558-.737-.594-.287-.09-3.397-2.752-3.397-2.914-.036-.342-2.588-2.07-3.163-2.123-.701-.054-1.007.036-1.528.432-.683.503-.827 1.277-.45 2.212.288.666 2.122 2.627 3.506 3.743.341.287.898.72 1.222.99.341.27.88.737 1.204 1.043.323.323 1.438 1.295 2.462 2.195 2.247 1.943 2.39 2.105 2.768 3.004.827 1.98-.018 4.264-2.013 5.506-.898.539-2.894.593-3.828.089-.485-.251-3.972-3.202-5.464-4.605-.305-.288-.305-.342.306-1.242.826-1.205 1.078-2.123 1.096-3.796 0-2.033-.719-3.67-2.336-5.271-1.169-1.134-1.96-1.62-3.505-2.123-.54-.18-.899-.324-.773-.324.395-.018.989-1.098 1.042-1.925.036-.54.18-.954.45-1.242.377-.395.395-.557.323-2.123-.072-1.403-.18-1.87-.665-2.86-.988-2.087-3.343-3.94-5.338-4.21-1.545-.216-1.42-.018-1.42-2.195 0-1.89-.018-1.98-.683-3.329-1.114-2.266-2.731-3.562-5.212-4.191-2.066-.54-4.151-.126-6.075 1.187l-1.06.72-.395-.846c-1.276-2.77-5.087-4.732-8.142-4.228-2.103.342-3.127 1.044-5.284 3.526l-.593.702-.485-.594c-1.33-1.69-2.013-2.698-2.625-3.85-.88-1.673-1.85-2.662-3.432-3.472l-1.276-.666.755-1.44c1.276-2.464 4.008-7.79 5.625-10.902a319.94 319.94 0 012.552-4.947c.575-1.098 1.69-3.239 2.48-4.768.791-1.53 2.624-5.092 4.08-7.916 1.456-2.825 2.714-5.272 2.822-5.452.09-.162.198-.306.27-.306.053 0 1.114.54 2.372 1.188zm-4.763 42.963c1.618.684 2.75 2.429 2.588 3.976-.108.864-.61 1.565-3.45 4.804-1.51 1.745-2.175 2.069-3.649 1.853-2.175-.324-4.008-2.987-3.307-4.804.18-.486 4.044-5.145 4.583-5.541.198-.144.485-.324.647-.396.485-.216 1.977-.144 2.588.108zm13.624 3.454c1.33.936 1.977 2.555 1.581 4.013-.18.701-1.204 2.05-7.063 9.373-1.977 2.447-2.66 2.933-4.188 2.933-2.426 0-4.331-2.465-3.684-4.786.162-.54 1.078-1.817 3.091-4.354 6.47-8.114 6.219-7.862 8.286-7.772 1.006.036 1.33.144 1.977.593zm6.686 9.32c1.995.828 2.965 3.274 2.048 5.11-.215.413-4.618 5.919-5.571 6.944a11.8 11.8 0 00-.719.918c-.503.755-1.294 1.277-2.337 1.547-2.174.594-4.672-1.475-4.619-3.796.018-1.008.773-2.141 3.99-6.1 3.685-4.497 4.116-4.857 5.752-4.875.467 0 1.132.108 1.456.252zm4.744 12.738c1.636.917 2.373 2.015 2.373 3.544 0 .864-.252 1.295-1.797 3.148-1.492 1.764-1.96 2.088-3.146 2.088-1.06 0-1.833-.342-2.767-1.188-1.15-1.025-1.582-2.483-1.097-3.742.234-.63 2.66-3.472 3.325-3.886.755-.504 2.157-.468 3.11.036z" fill="#5F8711"/></svg>