<svg width="16" height="22" fill="none" xmlns="http://www.w3.org/2000/svg"><path d="M11.775 8.153c0-1.868-1.53-3.388-3.413-3.388-1.882 0-3.414 1.52-3.414 3.388 0 1.869 1.532 3.389 3.414 3.389 1.882 0 3.413-1.52 3.413-3.389z" fill="#000"/><path d="M8.36 21.86l1.383-1.805c1.444-1.906 6.156-8.4 6.156-11.95 0-4.621-3.029-7.726-7.538-7.726S.823 3.484.823 8.105c0 3.824 5.533 11.133 6.162 11.952l1.375 1.802zM3.6 8.152c0-2.609 2.136-4.731 4.761-4.731s4.76 2.122 4.76 4.73c0 2.61-2.135 4.732-4.76 4.732s-4.76-2.123-4.76-4.731z" fill="#000"/></svg>