<svg width="13" height="19" fill="none" xmlns="http://www.w3.org/2000/svg"><path d="M3.516 6.628c0-1.593 1.306-2.89 2.911-2.89s2.91 1.297 2.91 2.89c0 1.593-1.305 2.889-2.91 2.889-1.605 0-2.91-1.296-2.91-2.89z" fill="#775A59"/><path d="M6.429 18.315l-1.18-1.538C4.017 15.15 0 9.615 0 6.587 0 2.647 2.582 0 6.427 0c3.845 0 6.428 2.647 6.428 6.588 0 3.26-4.718 9.492-5.255 10.19l-1.17 1.537zm4.057-11.687c0-2.224-1.82-4.034-4.059-4.034-2.238 0-4.059 1.81-4.059 4.034 0 2.224 1.82 4.034 4.06 4.034 2.237 0 4.058-1.81 4.058-4.034z" fill="#775A59"/></svg>