<svg width="25" height="24" fill="none" xmlns="http://www.w3.org/2000/svg"><path fill-rule="evenodd" clip-rule="evenodd" d="M7.285.072C8.568.013 8.978 0 12.248 0s3.679.014 4.961.072c1.283.058 2.158.262 2.924.557a5.93 5.93 0 012.132 1.386 5.86 5.86 0 011.388 2.124c.297.764.5 1.636.56 2.913.06 1.281.072 1.69.072 4.948 0 3.26-.014 3.668-.072 4.947-.058 1.277-.263 2.15-.56 2.913a5.885 5.885 0 01-1.388 2.126 5.904 5.904 0 01-2.132 1.383c-.766.297-1.641.5-2.921.559-1.285.059-1.694.072-4.964.072-3.27 0-3.68-.014-4.963-.072-1.28-.058-2.156-.262-2.922-.559a5.909 5.909 0 01-2.133-1.383 5.88 5.88 0 01-1.389-2.125c-.296-.764-.5-1.636-.559-2.913C.223 15.666.21 15.258.21 12c0-3.26.014-3.668.072-4.946.058-1.279.263-2.151.56-2.915.302-.8.777-1.526 1.39-2.125A5.902 5.902 0 014.361.629C5.128.334 6.003.131 7.284.072zm9.827 2.16c-1.27-.058-1.65-.07-4.864-.07s-3.595.012-4.865.07c-1.174.053-1.81.249-2.235.413a3.74 3.74 0 00-1.385.897c-.4.388-.706.859-.9 1.38-.164.423-.36 1.058-.414 2.229-.058 1.265-.07 1.645-.07 4.849s.012 3.584.07 4.85c.054 1.17.25 1.804.415 2.228.192.52.5.992.9 1.38.388.398.862.705 1.384.897.424.164 1.061.36 2.235.413 1.27.058 1.65.07 4.865.07 3.215 0 3.595-.012 4.864-.07 1.174-.053 1.811-.249 2.236-.413a3.738 3.738 0 001.384-.897c.4-.387.707-.86.9-1.38.165-.424.36-1.058.414-2.229.058-1.265.07-1.645.07-4.849s-.012-3.584-.07-4.85c-.053-1.17-.25-1.805-.415-2.228a3.725 3.725 0 00-.9-1.38 3.735 3.735 0 00-1.383-.897c-.425-.164-1.062-.36-2.236-.413zM10.71 15.699a4.027 4.027 0 004.881-1.471 3.993 3.993 0 00-.504-5.059 4.019 4.019 0 00-3.233-1.152 4.025 4.025 0 00-2.945 1.76 3.996 3.996 0 001.801 5.922zM7.872 7.64a6.189 6.189 0 014.376-1.807 6.204 6.204 0 014.375 1.807A6.167 6.167 0 0118.435 12a6.152 6.152 0 01-1.812 4.361 6.197 6.197 0 01-8.75 0 6.158 6.158 0 010-8.722zm11.935-.888a1.458 1.458 0 00-1.025-2.52 1.467 1.467 0 00-1.043.458 1.455 1.455 0 00.03 2.032 1.465 1.465 0 002.038.03z" fill="#000"/></svg>