<svg width="27" height="28" fill="none" xmlns="http://www.w3.org/2000/svg"><path fill-rule="evenodd" clip-rule="evenodd" d="M8.011.942C9.428.877 9.88.862 13.488.862c3.608 0 4.06.016 5.474.08 1.416.063 2.382.288 3.227.615a6.536 6.536 0 012.352 1.528 6.465 6.465 0 011.532 2.344c.328.843.552 1.806.618 3.214.065 1.415.08 1.865.08 5.46 0 3.597-.016 4.048-.08 5.46-.064 1.408-.29 2.37-.618 3.213a6.494 6.494 0 01-1.532 2.347 6.514 6.514 0 01-2.352 1.526c-.845.328-1.811.551-3.224.616-1.418.065-1.87.08-5.477.08-3.609 0-4.06-.016-5.477-.08-1.412-.063-2.378-.288-3.224-.616a6.518 6.518 0 01-2.353-1.526A6.489 6.489 0 01.9 22.778c-.327-.843-.551-1.806-.617-3.214-.065-1.415-.08-1.865-.08-5.46 0-3.597.016-4.048.08-5.458.064-1.411.29-2.374.617-3.217a6.494 6.494 0 011.534-2.345 6.513 6.513 0 012.351-1.527c.845-.327 1.811-.55 3.224-.615h.001zm10.844 2.383c-1.4-.064-1.82-.077-5.367-.077-3.547 0-3.967.013-5.368.077-1.296.059-1.998.274-2.467.456-.62.24-1.063.526-1.527.99a4.1 4.1 0 00-.993 1.522c-.182.467-.399 1.168-.458 2.46-.064 1.396-.077 1.815-.077 5.35 0 3.536.013 3.955.077 5.351.06 1.292.276 1.992.458 2.46.213.574.552 1.095.993 1.522.428.44.951.778 1.527.99.469.182 1.171.397 2.467.456 1.4.064 1.82.077 5.368.077 3.547 0 3.966-.013 5.367-.077 1.296-.06 1.998-.274 2.467-.456a4.126 4.126 0 001.528-.99c.44-.427.78-.948.992-1.523.183-.467.399-1.167.458-2.459.064-1.396.077-1.815.077-5.35 0-3.536-.013-3.955-.077-5.351-.06-1.292-.276-1.993-.458-2.46a4.11 4.11 0 00-.992-1.522 4.123 4.123 0 00-1.528-.99c-.468-.182-1.171-.397-2.467-.456zm-7.064 14.86a4.443 4.443 0 005.386-1.623 4.406 4.406 0 00-.556-5.582 4.433 4.433 0 00-3.567-1.272 4.441 4.441 0 00-3.25 1.942 4.41 4.41 0 001.987 6.535zM8.66 9.291a6.83 6.83 0 014.828-1.994 6.846 6.846 0 014.827 1.994 6.804 6.804 0 012 4.812 6.788 6.788 0 01-2 4.813 6.838 6.838 0 01-4.827 1.994 6.838 6.838 0 01-4.828-1.994 6.795 6.795 0 01-2-4.813c0-1.805.72-3.536 2-4.812zm13.17-.98a1.61 1.61 0 00.387-1.776 1.61 1.61 0 00-1.52-1.004 1.619 1.619 0 00-1.15.505 1.607 1.607 0 001.15 2.713c.42.007.827-.15 1.132-.438z" fill="#775A59"/></svg>