<svg width="27" height="18" fill="none" xmlns="http://www.w3.org/2000/svg"><path d="M23.221 2.22l1.425-.92H2.354l1.425.92 9.45 6.102.271.175.271-.175 9.45-6.102zM1.43 16.2v.5h24.14V1.701l-.77.498-11.023 7.119h0a.513.513 0 01-.278.08.511.511 0 01-.278-.08h0L2.2 2.199l-.771-.498V16.2zM1.93.5h23.14c.39 0 .757.145 1.023.393.264.247.406.574.406.907v14.4c0 .333-.142.66-.406.907a1.501 1.501 0 01-1.023.393H1.93c-.39 0-.757-.145-1.023-.393A1.242 1.242 0 01.5 16.2V1.8c0-.333.142-.66.406-.907A1.5 1.5 0 011.929.5z" fill="#775A59" stroke="#775A59"/></svg>