<svg width="31" height="21" fill="none" xmlns="http://www.w3.org/2000/svg"><path d="M26.497 2.82l1.43-.92H3.606l1.43.92 10.46 6.734.27.174.271-.174 10.46-6.734zM2.458 18.29v.5h26.617V2.387l-.77.496-12.2 7.856h-.001a.624.624 0 01-.337.097.624.624 0 01-.338-.097h0l-12.2-7.856-.771-.496V18.29zm.5-17.376h25.617c.445 0 .865.164 1.169.447.303.282.466.657.466 1.039v15.89c0 .382-.163.756-.466 1.038a1.719 1.719 0 01-1.169.448H2.958c-.445 0-.865-.165-1.169-.448a1.42 1.42 0 01-.466-1.038V2.4c0-.382.163-.757.466-1.038A1.719 1.719 0 012.958.913z" fill="#201D1D" stroke="#000"/></svg>