<svg width="67" height="95" fill="none" xmlns="http://www.w3.org/2000/svg"><path d="M48.166 34.757c0-8.205-6.725-14.88-14.991-14.88s-14.992 6.675-14.992 14.88c0 8.205 6.726 14.88 14.992 14.88 8.266 0 14.991-6.675 14.991-14.88z" fill="#EE8A00"/><path d="M33.166 94.952l6.076-7.923c6.342-8.37 27.034-36.888 27.034-52.48C66.277 14.255 52.975.62 33.173.62 13.372.62.07 14.255.07 34.55c0 16.79 24.298 48.89 27.062 52.485l6.035 7.916zM12.267 34.758c0-11.455 9.378-20.776 20.906-20.776 11.528 0 20.906 9.32 20.906 20.776s-9.378 20.776-20.906 20.776c-11.528 0-20.906-9.32-20.906-20.776z" fill="#EE8A00"/></svg>