<svg width="21" height="21" fill="none" xmlns="http://www.w3.org/2000/svg"><path d="M11.78 6.199c.792 0 1.553.314 2.113.872.56.559.875 1.317.875 2.107a.992.992 0 00.997.993.998.998 0 00.996-.993c0-1.317-.525-2.58-1.46-3.511a4.99 4.99 0 00-3.521-1.455.998.998 0 00-.996.994.992.992 0 00.996.993z" fill="#000"/><path d="M11.782 2.228c1.85 0 3.623.732 4.93 2.036a6.94 6.94 0 012.043 4.915.992.992 0 00.996.993.998.998 0 00.997-.993c0-2.37-.945-4.644-2.627-6.32a8.98 8.98 0 00-6.34-2.618.998.998 0 00-.996.993.992.992 0 00.997.994zm8.716 11.827a.994.994 0 00-.717-.645l-5.977-1.36a1 1 0 00-.917.257c-.139.13-.149.14-.796 1.371a9.857 9.857 0 01-4.852-4.856c1.265-.636 1.275-.636 1.405-.785a.992.992 0 00.259-.913l-1.365-5.89A.992.992 0 006.89.52a3.785 3.785 0 00-.717-.178 3.937 3.937 0 00-.767-.1 4.59 4.59 0 00-3.24 1.338A4.561 4.561 0 00.822 4.81a15.29 15.29 0 004.5 10.81 15.386 15.386 0 0010.842 4.484 4.597 4.597 0 003.24-1.338 4.567 4.567 0 001.283-3.985 4.3 4.3 0 00-.19-.725z" fill="#000"/></svg>