<svg width="25" height="17" viewBox="0 0 25 17" fill="none" xmlns="http://www.w3.org/2000/svg">
<path d="M1.30579 1.74587L11.4308 7.18502C11.771 7.36727 12.2111 7.45367 12.6539 7.45367C13.0967 7.45367 13.5368 7.36727 13.877 7.18502L24.002 1.74587C24.6621 1.39082 25.2858 0.00976562 24.0749 0.00976562H1.23424C0.023286 0.00976562 0.646986 1.39082 1.30579 1.74587ZM24.3084 4.71992L13.877 10.1564C13.418 10.3967 13.0967 10.425 12.6539 10.425C12.2111 10.425 11.8898 10.3967 11.4308 10.1564C10.9718 9.91607 1.80124 5.10872 1.05199 4.71857C0.525486 4.44317 0.530886 4.76582 0.530886 5.01422V14.8598C0.530886 15.4268 1.29499 16.2098 1.88089 16.2098H23.4809C24.0668 16.2098 24.8309 15.4268 24.8309 14.8598V5.01557C24.8309 4.76717 24.8363 4.44452 24.3084 4.71992Z" fill="#494949"/>
</svg>
