<svg width="25" height="24" fill="none" xmlns="http://www.w3.org/2000/svg"><path d="M4.467 0a4.492 4.492 0 00-3.154 1.31A4.464 4.464 0 000 4.452v15.094a4.463 4.463 0 001.313 3.144A4.491 4.491 0 004.467 24h15.141a4.491 4.491 0 003.154-1.31 4.464 4.464 0 001.313-3.143V4.453a4.464 4.464 0 00-1.313-3.144A4.492 4.492 0 0019.608 0H4.468zm0 2.182h15.141a2.26 2.26 0 012.279 2.271v15.094a2.26 2.26 0 01-2.279 2.271H4.468a2.27 2.27 0 01-2.11-1.4 2.25 2.25 0 01-.17-.871V4.453a2.26 2.26 0 012.28-2.271zm7.263 5.705c-.804-.007-1.488 0-1.872.188-.257.124-.453.405-.334.418.15.022.487.094.668.337.23.31.222 1.014.222 1.014s.128 1.934-.313 2.178c-.303.166-.718-.171-1.616-1.71-.457-.792-.803-1.665-.803-1.665s-.065-.163-.184-.248a.941.941 0 00-.347-.14L5.01 8.27s-.32.013-.436.15c-.107.127-.008.378-.008.378s1.675 3.908 3.573 5.877c1.74 1.808 3.715 1.688 3.715 1.688h.897s.27-.03.406-.175c.13-.136.125-.393.125-.393s-.018-1.196.538-1.375c.552-.171 1.252 1.158 2 1.67.57.387 1 .302 1 .302l2.003-.03s1.042-.064.547-.886c-.039-.063-.287-.605-1.483-1.713-1.258-1.159-1.09-.97.422-2.978.92-1.223 1.287-1.97 1.171-2.293-.11-.302-.786-.222-.786-.222l-2.253.013s-.166-.021-.29.052a.629.629 0 00-.197.242s-.359.946-.834 1.752c-1 1.695-1.406 1.789-1.568 1.683-.38-.248-.287-.99-.287-1.513 0-1.65.252-2.331-.487-2.51-.244-.06-.423-.097-1.047-.103z" fill="#000"/></svg>